<?xml version="1.0" encoding="UTF-8"?>
<svg xmlns="http://www.w3.org/2000/svg" xmlns:xlink="http://www.w3.org/1999/xlink" viewBox="0 0 30 30" width="30px" height="30px">
<g id="surface167936173">
<path style=" stroke:none;fill-rule:nonzero;fill:rgb(96.470588%,96.470588%,96.470588%);fill-opacity:1;" d="M 27 15 C 27 21.628906 21.628906 27 15 27 C 8.371094 27 3 21.628906 3 15 C 3 8.371094 8.371094 3 15 3 C 21.628906 3 27 8.371094 27 15 Z M 19.179688 8.132812 C 18.878906 8.089844 18.234375 8 17.019531 8 C 14.484375 8 13 9.339844 13 12.390625 L 13 14 L 10 14 L 10 17 L 13 17 L 13 24.800781 C 13.644531 24.929688 14.316406 25 15 25 C 15.339844 25 15.671875 24.980469 16 24.949219 L 16 17 L 18.726562 17 L 19.152344 14 L 16 14 L 16 12.71875 C 16 11.566406 16.375 11 17.453125 11 L 19.179688 11 Z M 19.179688 8.132812 "/>
</g>
</svg>
