<svg width="28" height="28" viewBox="0 0 28 28" fill="none" xmlns="http://www.w3.org/2000/svg">
<path fill-rule="evenodd" clip-rule="evenodd" d="M10.4999 22.1666L5.83325 17.4999C5.83325 17.1114 6.22175 16.3333 6.99992 15.1666L2.33325 13.9999L4.66659 10.4999L9.33325 11.6666C13.9999 4.66659 20.9999 2.33325 25.6666 2.33325C25.6666 6.99992 23.3333 13.9999 16.3333 18.6666L17.4999 23.3333L13.9999 25.6666L12.8333 20.9999C11.6666 21.7781 10.8884 22.1666 10.4999 22.1666ZM18.0833 11.6666C18.5474 11.6666 18.9925 11.4822 19.3207 11.154C19.6489 10.8258 19.8333 10.3807 19.8333 9.91659C19.8333 9.45246 19.6489 9.00734 19.3207 8.67915C18.9925 8.35096 18.5474 8.16659 18.0833 8.16659C17.6191 8.16659 17.174 8.35096 16.8458 8.67915C16.5176 9.00734 16.3333 9.45246 16.3333 9.91659C16.3333 10.3807 16.5176 10.8258 16.8458 11.154C17.174 11.4822 17.6191 11.6666 18.0833 11.6666ZM4.66659 18.6666L6.12492 20.1249C5.34675 20.9031 4.86142 21.9718 4.66659 23.3333C6.02809 23.1384 7.09675 22.6531 7.87492 21.8749L9.33325 23.3333C7.77809 24.8884 5.44475 25.6666 2.33325 25.6666C2.33325 22.5551 3.11142 20.2218 4.66659 18.6666Z" fill="#3060BF"/>
</svg>
